<svg width="21" height="20" viewBox="0 0 21 20" fill="none" xmlns="http://www.w3.org/2000/svg">
<path d="M21 12.262V20H16.499V12.7802C16.499 10.9666 15.848 9.72881 14.2188 9.72881C12.9751 9.72881 12.235 10.563 11.9094 11.3699C11.7906 11.6583 11.7601 12.0598 11.7601 12.4636V20H7.25758C7.25758 20 7.31822 7.77208 7.25758 6.50518H11.7596V8.41801C11.7505 8.43232 11.7386 8.44775 11.73 8.46161H11.7596V8.41801C12.3578 7.49982 13.426 6.18815 15.817 6.18815C18.7793 6.1881 21 8.1169 21 12.262ZM2.54778 0C1.00748 0 0 1.00695 0 2.33113C0 3.62645 0.978334 4.66397 2.48802 4.66397H2.51809C4.08822 4.66397 5.0647 3.62665 5.0647 2.33113C5.03511 1.00695 4.08822 0 2.54778 0ZM0.267409 20H4.76819V6.50518H0.267409V20Z" fill="#525659"/>
</svg>
