<svg width="24" height="22" viewBox="0 0 24 22" fill="none" xmlns="http://www.w3.org/2000/svg">
<path d="M20.0231 0.241206C20.8974 -0.172709 22.0169 -0.0485345 22.7526 0.572338C23.4349 1.11043 23.7761 2.02104 23.6162 2.85922C23.4989 3.56288 23.0511 4.21479 22.422 4.56662C21.6437 5.03228 20.5988 5.02193 19.8205 4.55627C19.2448 4.23549 18.8396 3.66635 18.6584 3.04548C17.4323 2.79713 16.2061 2.53844 14.98 2.26939C14.4256 3.9561 13.8818 5.65315 13.3274 7.33985C15.1613 7.48472 16.9738 7.87794 18.6477 8.61264C19.0849 8.14699 19.6286 7.75377 20.279 7.61925C21.3345 7.33985 22.5073 7.71238 23.2323 8.49881C23.7121 9.00586 23.9574 9.66813 24 10.3511V10.5477C23.9574 11.2824 23.6268 11.955 23.1364 12.5034C23.6482 13.6417 23.7761 14.9559 23.3816 16.1459C22.8592 17.7602 21.5797 19.033 20.1191 19.9125C17.8801 21.2888 15.2146 21.8993 12.5917 21.9925C9.95824 22.0649 7.2821 21.6199 4.91515 20.4817C3.20924 19.6435 1.59929 18.4017 0.820968 16.6529C0.2239 15.3491 0.266548 13.8073 0.863616 12.5138C0.383829 11.955 0.0319858 11.2824 0 10.5477V10.3407C0.0426477 9.84404 0.170591 9.33699 0.458463 8.91273C1.00222 8.03316 2.05775 7.49507 3.10262 7.52611C3.9769 7.55716 4.79787 7.98142 5.35229 8.61264C7.29276 7.75377 9.42514 7.3502 11.5469 7.30881C12.2079 5.24958 12.8903 3.19035 13.5513 1.14147C13.6473 0.717209 14.1057 0.396424 14.5429 0.499903C15.9609 0.799992 17.3789 1.08973 18.797 1.40017C19.0849 0.924166 19.49 0.479207 20.0231 0.241206ZM1.16215 9.78195C0.93825 10.3304 1.02355 10.9616 1.32208 11.4687C2.1004 10.4235 3.14527 9.60604 4.29676 8.97482C3.81697 8.61264 3.16659 8.43673 2.56952 8.5816C1.92981 8.72647 1.38605 9.18178 1.16215 9.78195ZM19.7139 8.96447C20.8654 9.59569 21.9103 10.4235 22.6886 11.4687C22.9125 11.0651 23.0404 10.5891 22.9445 10.1234C22.8272 9.41978 22.2621 8.80925 21.5478 8.61264C20.9294 8.40568 20.2257 8.5816 19.7139 8.96447ZM7.39938 11.1272C6.46113 11.3755 5.7681 12.2965 5.84274 13.2381C5.86406 14.1695 6.63172 15.0076 7.56997 15.1835C8.01777 15.2353 8.4869 15.2249 8.89205 15.0283C9.63838 14.7075 10.1502 13.9315 10.1395 13.1347C10.1608 12.3379 9.64905 11.5618 8.89205 11.2514C8.43359 11.0134 7.88983 11.0134 7.39938 11.1272ZM15.4065 11.1272C14.5535 11.3652 13.8925 12.1516 13.8712 13.0208C13.8179 13.7969 14.2763 14.5937 14.98 14.9559C15.6197 15.3077 16.462 15.2974 17.1017 14.9249C17.7414 14.5627 18.1786 13.859 18.1679 13.1243C18.1786 12.3172 17.6562 11.5411 16.8992 11.2203C16.4407 11.0237 15.8969 11.003 15.4065 11.1272ZM8.04976 16.4977C7.6446 16.5909 7.32474 16.9737 7.37805 17.3773C7.39938 17.8326 7.83652 18.1017 8.16704 18.35C9.53176 19.2192 11.2377 19.4055 12.8263 19.2917C14.1377 19.1468 15.5558 18.8053 16.4727 17.8119C16.9098 17.3049 16.462 16.4667 15.7903 16.477C15.2679 16.4563 15.012 16.9737 14.5642 17.1393C13.4127 17.667 12.08 17.7188 10.8325 17.5532C10.1288 17.429 9.3825 17.2428 8.86006 16.7461C8.65749 16.5391 8.33763 16.4253 8.04976 16.4977Z" fill="#525659"/>
</svg>
