<svg aria-hidden="true" style="position: absolute; width: 0; height: 0; overflow: hidden;" version="1.1" xmlns="http://www.w3.org/2000/svg" xmlns:xlink="http://www.w3.org/1999/xlink">
<defs>
<symbol id="icon-facebook-icon" viewBox="0 0 18 32">
<path fill="#525659" style="none" d="M16.937 0.007l-4.221-0.007c-4.743 0-7.808 3.091-7.808 7.875v3.631h-4.244c-0.367 0-0.664 0.292-0.664 0.653v5.261c0 0.36 0.297 0.652 0.664 0.652h4.244v13.275c0 0.36 0.297 0.652 0.664 0.652h5.538c0.367 0 0.664-0.292 0.664-0.652v-13.275h4.963c0.367 0 0.664-0.292 0.664-0.652l0.002-5.261c0-0.173-0.070-0.339-0.194-0.461s-0.294-0.191-0.47-0.191h-4.964v-3.078c0-1.479 0.359-2.23 2.319-2.23l2.844-0.001c0.367 0 0.664-0.292 0.664-0.652v-4.885c0-0.36-0.297-0.652-0.663-0.652z"></path>
</symbol>
<symbol id="icon-linkedin-icon" viewBox="0 0 34 32">
<path fill="#525659" style="fill: var(--color1, #525659)" d="M33.6 19.619v12.381h-7.202v-11.552c0-2.902-1.042-4.882-3.648-4.882-1.99 0-3.174 1.335-3.695 2.626-0.19 0.461-0.239 1.104-0.239 1.75v12.058h-7.204c0 0 0.097-19.565 0-21.592h7.203v3.061c-0.015 0.023-0.034 0.048-0.047 0.070h0.047v-0.070c0.957-1.469 2.666-3.568 6.492-3.568 4.74-0 8.293 3.086 8.293 9.718zM4.076 0c-2.464 0-4.076 1.611-4.076 3.73 0 2.072 1.565 3.733 3.981 3.733h0.048c2.512 0 4.075-1.66 4.075-3.733-0.047-2.119-1.562-3.73-4.027-3.73zM0.428 32h7.201v-21.592h-7.201v21.592z"></path>
</symbol>
<symbol id="icon-reddit-icon" viewBox="0 0 35 32">
<path fill="#525659" style="fill: var(--color1, #525659)" d="M29.125 0.351c1.272-0.602 2.9-0.421 3.97 0.482 0.992 0.783 1.489 2.107 1.256 3.326-0.171 1.024-0.822 1.972-1.737 2.483-1.132 0.677-2.652 0.662-3.784-0.015-0.837-0.467-1.427-1.294-1.69-2.197-1.783-0.361-3.567-0.737-5.35-1.129-0.806 2.453-1.597 4.922-2.404 7.375 2.668 0.211 5.304 0.783 7.739 1.851 0.636-0.677 1.427-1.249 2.373-1.445 1.535-0.406 3.241 0.135 4.296 1.279 0.698 0.738 1.055 1.701 1.117 2.694v0.286c-0.062 1.069-0.543 2.047-1.256 2.845 0.744 1.656 0.93 3.567 0.357 5.298-0.76 2.348-2.621 4.199-4.745 5.479-3.257 2.002-7.134 2.89-10.949 3.025-3.831 0.105-7.723-0.542-11.166-2.198-2.481-1.219-4.823-3.025-5.955-5.569-0.868-1.896-0.806-4.139 0.062-6.021-0.698-0.813-1.21-1.791-1.256-2.86v-0.301c0.062-0.722 0.248-1.46 0.667-2.077 0.791-1.279 2.326-2.062 3.846-2.017 1.272 0.045 2.466 0.662 3.272 1.58 2.822-1.249 5.924-1.836 9.010-1.896 0.961-2.995 1.954-5.99 2.916-8.971 0.14-0.617 0.806-1.084 1.442-0.933 2.063 0.436 4.125 0.858 6.188 1.309 0.419-0.692 1.008-1.34 1.783-1.686zM1.69 14.228c-0.326 0.798-0.202 1.716 0.233 2.453 1.132-1.52 2.652-2.709 4.327-3.627-0.698-0.527-1.644-0.783-2.512-0.572-0.93 0.211-1.721 0.873-2.047 1.746zM28.675 13.039c1.675 0.918 3.195 2.122 4.327 3.643 0.326-0.587 0.512-1.279 0.372-1.957-0.171-1.023-0.993-1.912-2.032-2.197-0.899-0.301-1.923-0.045-2.668 0.512zM10.763 16.185c-1.365 0.361-2.373 1.701-2.264 3.070 0.031 1.355 1.148 2.574 2.512 2.83 0.651 0.075 1.334 0.060 1.923-0.226 1.086-0.467 1.83-1.595 1.814-2.754 0.031-1.159-0.713-2.288-1.814-2.739-0.667-0.346-1.458-0.346-2.171-0.181zM22.409 16.185c-1.241 0.346-2.202 1.49-2.233 2.754-0.078 1.129 0.589 2.288 1.613 2.815 0.93 0.512 2.156 0.497 3.086-0.045 0.93-0.527 1.566-1.55 1.551-2.619 0.016-1.174-0.744-2.303-1.845-2.769-0.667-0.286-1.458-0.316-2.171-0.135zM11.709 23.997c-0.589 0.136-1.055 0.692-0.977 1.279 0.031 0.662 0.667 1.054 1.148 1.415 1.985 1.264 4.466 1.535 6.777 1.37 1.907-0.211 3.97-0.707 5.304-2.152 0.636-0.737-0.016-1.957-0.993-1.942-0.76-0.030-1.132 0.722-1.783 0.963-1.675 0.768-3.613 0.843-5.428 0.602-1.024-0.181-2.109-0.451-2.869-1.174-0.295-0.301-0.76-0.467-1.179-0.361z"></path>
</symbol>
<symbol id="icon-twitter-icon" viewBox="0 0 40 32">
<path fill="#525659" style="fill: var(--color1, #525659)" d="M40 3.786c-1.472 0.642-3.052 1.078-4.712 1.273 1.695-0.999 2.992-2.585 3.607-4.468-1.59 0.926-3.344 1.598-5.214 1.962-1.497-1.573-3.627-2.553-5.989-2.553-4.532 0-8.206 3.619-8.206 8.079 0 0.633 0.072 1.251 0.212 1.841-6.819-0.337-12.865-3.555-16.912-8.444-0.707 1.192-1.11 2.58-1.11 4.062 0 2.804 1.45 5.278 3.649 6.725-1.345-0.044-2.61-0.409-3.717-1.014v0.101c0 3.914 2.829 7.181 6.581 7.924-0.687 0.182-1.412 0.283-2.162 0.283-0.53 0-1.042-0.052-1.545-0.15 1.045 3.213 4.074 5.549 7.664 5.613-2.807 2.166-6.346 3.454-10.191 3.454-0.662 0-1.315-0.039-1.957-0.111 3.632 2.297 7.944 3.636 12.578 3.636 15.095 0 23.346-12.314 23.346-22.993l-0.028-1.046c1.612-1.132 3.007-2.555 4.104-4.175z"></path>
</symbol>
</defs>
</svg>
